<?xml version="1.0" standalone="no"?>
<!DOCTYPE svg PUBLIC "-//W3C//DTD SVG 20010904//EN"
 "http://www.w3.org/TR/2001/REC-SVG-20010904/DTD/svg10.dtd">
<svg version="1.0" xmlns="http://www.w3.org/2000/svg"
 width="1092.000000pt" height="1280.000000pt" viewBox="0 0 1092.000000 1280.000000"
 preserveAspectRatio="xMidYMid meet">
<g transform="translate(0.000000,1280.000000) scale(0.100000,-0.100000)"
fill="#000000" stroke="none">
<path d="M4758 12795 c-3 -4 -73 -15 -155 -26 -137 -17 -158 -23 -279 -74
-129 -55 -131 -56 -193 -131 -63 -75 -64 -75 -58 -125 5 -44 0 -68 -48 -197
-45 -124 -55 -162 -60 -242 -11 -147 -28 -202 -101 -314 -35 -54 -64 -102 -64
-105 0 -4 23 -18 52 -32 85 -39 90 -53 74 -184 l-14 -110 50 -46 50 -47 -7
-58 c-5 -36 -24 -95 -51 -153 -46 -97 -51 -122 -34 -165 l10 -26 211 0 211 0
35 -35 c31 -31 34 -39 29 -72 -4 -21 -10 -151 -15 -289 l-10 -251 -56 -149
c-31 -82 -80 -193 -108 -247 l-52 -99 -95 -55 c-52 -31 -141 -87 -197 -125
-105 -70 -192 -111 -224 -106 -10 2 -78 60 -152 130 -130 123 -141 137 -291
363 -131 197 -157 242 -163 282 -3 26 -10 53 -14 59 -12 14 -26 133 -34 274
-6 97 -13 136 -50 253 -36 113 -56 156 -109 240 -58 92 -77 112 -178 193
l-113 91 -120 6 c-99 5 -139 3 -227 -15 l-108 -21 -52 -91 -52 -91 -4 -120
c-6 -181 18 -317 74 -421 24 -45 75 -166 112 -270 l69 -189 101 -76 c55 -41
140 -112 189 -157 l88 -81 67 -158 c37 -87 99 -250 137 -363 l70 -205 171
-283 c148 -247 331 -509 382 -549 7 -5 83 -39 168 -75 120 -51 188 -72 302
-97 l148 -31 102 36 c57 20 111 44 121 52 11 10 21 12 27 6 11 -11 -1 -253
-29 -544 -15 -159 -17 -231 -11 -320 5 -63 9 -169 9 -236 l1 -120 -102 -1
c-128 -1 -662 0 -823 1 -100 1 -120 -2 -121 -14 -2 -34 -5 -38 -27 -43 -12 -4
-129 -58 -260 -122 l-238 -116 -302 -242 c-166 -133 -372 -305 -457 -383 -127
-115 -173 -150 -255 -194 -80 -42 -182 -113 -247 -169 -11 -10 -36 -282 -43
-466 -6 -151 -5 -183 14 -275 12 -58 34 -256 50 -440 l29 -335 95 -460 c53
-253 125 -597 162 -765 61 -280 69 -330 95 -605 25 -268 27 -309 16 -387 -7
-48 -15 -90 -18 -93 -3 -4 -75 -27 -160 -52 -167 -49 -252 -94 -450 -234 -57
-41 -146 -91 -216 -123 l-118 -53 -260 -6 c-257 -5 -561 -36 -591 -60 -7 -5
-18 -28 -24 -51 -6 -22 -17 -55 -26 -73 -14 -30 -14 -32 32 -91 43 -57 49 -61
103 -72 31 -6 77 -18 102 -25 25 -8 81 -19 125 -25 72 -10 81 -9 93 7 12 17
50 18 655 17 445 -1 749 -7 990 -18 l348 -17 119 27 c65 15 124 30 130 34 6 4
31 59 55 124 l44 116 -51 126 -52 126 -115 87 c-64 49 -121 94 -128 102 -9 12
-7 43 9 145 l20 131 -46 150 -46 151 0 449 0 449 115 560 114 561 -9 164 c-12
206 -12 440 -1 457 13 22 365 73 544 79 155 6 157 5 157 -16 0 -18 6 -21 47
-21 45 0 516 30 794 50 74 6 177 10 228 10 79 0 131 9 330 56 141 34 241 53
248 47 7 -4 103 -136 213 -293 l200 -285 336 -357 c197 -209 345 -358 355
-358 25 0 150 -111 491 -438 272 -260 304 -294 384 -410 48 -70 101 -144 117
-164 l29 -38 154 0 c150 0 160 -1 335 -45 153 -39 242 -70 589 -209 l409 -164
606 -330 c599 -327 608 -331 778 -387 102 -34 179 -65 189 -77 9 -10 46 -77
82 -147 57 -113 71 -151 115 -327 28 -109 75 -291 106 -404 46 -169 85 -373
85 -447 0 -7 28 -27 63 -44 34 -17 70 -38 80 -47 14 -13 25 -13 70 -4 28 7 65
13 82 15 29 2 30 3 54 117 42 200 33 586 -29 1133 -19 167 -79 471 -97 487 -4
4 -98 -3 -208 -16 -110 -13 -220 -24 -245 -24 l-46 0 -160 163 c-252 256 -912
944 -1099 1145 l-170 184 -226 113 -226 113 -211 15 -212 15 -97 85 c-54 47
-123 107 -154 134 -32 26 -62 59 -69 73 -49 101 -108 305 -165 568 -55 253
-76 326 -150 535 -106 299 -97 281 -189 413 -52 75 -95 126 -141 162 -54 44
-65 59 -66 85 -1 18 -1 140 0 272 2 234 1 245 -33 440 -26 151 -47 236 -85
348 -71 206 -72 208 -151 300 -40 45 -108 134 -153 197 -44 63 -124 172 -178
242 -55 69 -103 137 -109 150 -5 13 -35 155 -66 317 l-56 294 21 376 c12 207
21 455 21 551 0 151 21 561 36 686 6 51 8 52 169 60 l120 6 118 -51 c233 -100
447 -291 665 -596 147 -206 202 -310 358 -685 l73 -175 121 -107 c67 -59 133
-109 148 -112 59 -12 605 -96 608 -94 6 7 174 434 174 443 0 5 -71 78 -157
160 l-157 150 -185 15 -186 15 -97 130 c-89 119 -103 143 -164 295 -52 129
-75 203 -104 337 -34 157 -44 186 -116 338 -75 160 -83 172 -199 307 -109 127
-131 148 -225 207 -71 46 -106 74 -110 90 -4 19 -27 31 -130 70 -69 26 -192
76 -275 111 -101 42 -215 80 -352 116 -195 51 -209 53 -375 60 l-173 7 -140
52 -140 53 2 54 c1 29 4 118 7 198 l4 145 57 120 c45 95 63 150 89 265 l32
145 -9 210 -9 210 -92 168 -91 168 -145 94 -145 94 -140 11 c-77 6 -162 13
-190 16 -27 3 -53 3 -57 -1z m220 -71 l142 -6 138 -89 137 -88 84 -157 84
-156 9 -199 c10 -197 10 -200 -18 -326 -22 -99 -42 -159 -92 -268 l-64 -140 5
-90 c6 -93 -16 -289 -34 -312 -6 -6 -37 -14 -69 -18 -33 -4 -124 -31 -202 -61
-179 -68 -550 -176 -592 -172 -28 3 -31 6 -34 43 -3 31 -12 49 -45 83 l-41 42
-202 0 c-156 0 -204 3 -213 13 -8 11 0 36 35 108 40 81 47 105 51 175 l6 80
-47 49 c-25 27 -46 52 -46 55 0 3 7 50 14 104 9 61 11 106 6 117 -12 21 -78
79 -90 79 -21 0 -8 38 34 101 55 81 75 151 86 294 7 96 15 128 59 247 38 103
51 151 51 192 0 50 3 58 49 113 47 54 59 62 174 110 114 47 138 54 278 71 85
11 165 18 179 16 14 -1 89 -6 168 -10z m-2453 -1564 c14 -5 67 -43 116 -82
129 -104 201 -216 262 -405 42 -129 45 -148 53 -298 5 -88 9 -168 9 -178 0
-16 -17 -18 -230 -21 -220 -3 -285 -9 -285 -26 0 -16 85 -23 305 -25 l230 -2
17 -51 c10 -31 81 -148 173 -286 154 -232 158 -236 310 -380 85 -80 159 -146
164 -146 32 0 186 80 306 159 125 82 179 111 189 100 2 -2 138 -221 301 -487
l298 -483 -34 -35 c-19 -20 -112 -99 -206 -177 -159 -130 -173 -143 -173 -173
0 -54 -65 -107 -177 -145 l-92 -30 -133 27 c-101 22 -171 44 -288 94 l-154 65
-98 125 c-60 77 -163 233 -267 405 l-170 281 -76 219 c-41 121 -105 289 -142
373 l-67 153 -86 78 c-47 43 -130 112 -185 153 l-100 75 -59 164 c-33 90 -82
209 -109 264 -61 122 -76 193 -76 378 l-1 138 41 75 c23 42 49 78 57 82 75 28
322 43 377 22z m4593 -873 c85 -55 112 -80 210 -198 107 -125 119 -144 188
-293 66 -142 78 -176 110 -325 28 -127 53 -207 105 -339 66 -165 74 -180 176
-315 58 -78 107 -143 107 -144 1 -1 85 -8 188 -16 l187 -14 135 -129 c75 -71
136 -137 136 -146 0 -25 -129 -345 -143 -356 -8 -7 -107 6 -282 34 -148 24
-273 44 -277 44 -4 0 -58 45 -120 99 l-113 99 -60 144 c-52 128 -108 255 -196
446 -16 34 -94 154 -173 265 -162 227 -277 349 -453 481 -57 42 -103 79 -103
81 0 3 48 125 106 272 58 148 115 292 126 321 11 30 26 52 34 52 8 0 58 -28
112 -63z m-3873 -3609 c9 -23 74 -1743 67 -1749 -4 -4 -79 -11 -167 -17 -88
-6 -256 -25 -374 -43 l-214 -33 6 -350 6 -350 -114 -560 -115 -559 0 -436 0
-436 45 -145 c24 -80 45 -160 45 -178 0 -29 -22 -185 -36 -254 -5 -25 5 -35
130 -128 l135 -101 45 -109 46 -109 -36 -93 c-19 -51 -38 -96 -42 -100 -4 -4
-54 -17 -112 -30 l-105 -24 -255 14 c-159 8 -565 15 -1078 17 -961 4 -986 6
-1031 78 -19 32 -20 40 -10 81 6 25 16 49 23 54 32 25 431 61 678 62 l148 0
117 52 c77 34 161 82 243 139 206 143 266 173 445 225 88 25 165 52 171 60 6
8 17 63 24 122 11 97 9 134 -15 397 -26 275 -31 310 -110 680 -46 215 -120
568 -165 785 -79 386 -81 403 -110 735 -17 187 -39 379 -49 426 -17 77 -19
105 -11 275 5 104 14 238 21 298 l12 108 63 52 c35 29 109 76 165 105 85 45
126 76 254 193 147 134 352 304 633 525 121 96 154 115 365 219 128 62 238
113 245 114 7 0 15 -6 17 -12z m4190 -2430 c3 -13 16 -72 30 -133 13 -60 48
-176 78 -256 46 -125 59 -151 93 -181 21 -19 98 -87 171 -150 l131 -115 129
-8 c316 -17 283 -9 518 -127 l210 -106 180 -193 c153 -165 613 -644 1136
-1183 l136 -140 229 25 c179 20 232 23 242 14 22 -20 69 -256 91 -455 26 -238
51 -624 51 -799 0 -147 -29 -348 -52 -363 -27 -17 -108 -8 -158 17 -27 13 -51
28 -53 32 -3 5 -10 53 -17 108 -7 62 -43 218 -95 415 -46 173 -96 365 -111
425 -21 88 -42 140 -105 261 l-79 151 -195 66 -194 66 -598 326 -597 327 -420
167 c-367 147 -445 174 -608 215 -178 44 -195 46 -326 46 l-139 0 -107 153
c-102 148 -117 164 -389 423 -155 149 -324 308 -375 354 -64 57 -89 87 -82 94
16 16 1223 544 1247 545 16 1 24 -6 28 -21z"/>
</g>
</svg>
