<?xml version="1.0" standalone="no"?>
<!DOCTYPE svg PUBLIC "-//W3C//DTD SVG 20010904//EN"
 "http://www.w3.org/TR/2001/REC-SVG-20010904/DTD/svg10.dtd">
<svg version="1.0" xmlns="http://www.w3.org/2000/svg"
 width="1280.000000pt" height="1280.000000pt" viewBox="0 0 1280.000000 1280.000000"
 preserveAspectRatio="xMidYMid meet">
<g transform="translate(0.000000,1280.000000) scale(0.100000,-0.100000)"
fill="#000000" stroke="none">
<path d="M2680 10537 l0 -657 28 0 c101 -1 448 -23 550 -35 503 -62 895 -223
1272 -523 52 -41 257 -236 455 -433 l360 -359 -863 -863 -863 -863 84 -38 c47
-21 152 -76 233 -123 373 -215 414 -228 699 -227 176 1 197 3 278 28 104 31
143 50 314 153 418 249 739 343 1176 343 440 0 731 -83 1154 -331 269 -157
353 -186 568 -196 153 -7 276 7 388 44 61 20 346 174 467 252 12 8 -350 375
-1755 1778 -973 973 -1822 1814 -1885 1868 -683 584 -1319 804 -2407 832
l-253 6 0 -656z"/>
<path d="M8660 11184 c-14 -2 -56 -9 -95 -15 -158 -25 -358 -106 -507 -206
-101 -67 -263 -226 -338 -330 -114 -161 -192 -351 -225 -552 -25 -149 -17
-388 19 -526 64 -250 174 -445 355 -626 253 -252 571 -383 931 -383 360 0 676
131 931 384 183 182 294 380 360 644 30 116 37 376 15 506 -50 293 -178 534
-391 738 -189 182 -398 293 -655 348 -71 15 -345 28 -400 18z"/>
<path d="M2600 5580 c-296 -31 -564 -122 -840 -285 -227 -134 -286 -165 -360
-190 -88 -29 -182 -45 -262 -45 l-58 0 0 -526 0 -527 125 7 c386 21 717 135
1100 378 76 48 164 88 252 114 72 21 116 27 239 31 170 6 276 -5 381 -41 86
-29 148 -61 351 -179 357 -208 631 -290 1012 -304 471 -17 808 74 1240 332
189 113 222 129 327 162 83 25 100 27 288 27 164 1 213 -2 270 -18 92 -24 218
-84 390 -185 295 -174 492 -249 775 -296 134 -22 419 -30 563 -16 351 34 588
118 947 331 94 56 199 113 233 127 206 84 549 85 756 2 41 -16 143 -70 227
-119 279 -163 422 -228 616 -280 142 -37 270 -57 421 -66 l117 -7 0 527 0 526
-54 0 c-144 0 -303 49 -466 143 -252 145 -324 184 -428 229 -275 118 -557 166
-897 155 -412 -15 -668 -94 -1073 -334 -285 -169 -347 -188 -622 -187 -274 0
-335 19 -625 190 -256 151 -415 221 -621 272 -182 46 -285 57 -529 57 -248 0
-349 -11 -540 -60 -207 -53 -370 -125 -623 -277 -252 -151 -331 -177 -564
-185 -272 -10 -382 22 -670 190 -322 188 -527 268 -803 312 -118 19 -471 28
-595 15z"/>
<path d="M2655 3184 c-398 -46 -618 -122 -981 -339 -68 -41 -145 -85 -171 -98
-104 -52 -249 -87 -365 -87 l-58 0 0 -526 0 -527 128 7 c236 13 465 65 668
151 120 52 192 90 394 208 228 134 342 167 579 167 253 0 345 -29 617 -191
405 -240 666 -322 1074 -336 470 -16 811 77 1260 344 177 105 202 118 307 150
83 25 100 27 288 27 164 1 213 -2 270 -18 92 -24 218 -84 390 -185 381 -224
643 -304 1045 -318 471 -16 802 75 1250 343 248 149 361 184 596 184 247 0
359 -33 610 -180 279 -163 422 -228 616 -280 146 -38 268 -57 423 -66 l125 -7
0 527 0 526 -57 0 c-81 0 -175 16 -263 45 -73 24 -112 45 -370 195 -377 219
-711 302 -1155 287 -405 -15 -683 -100 -1060 -327 -288 -173 -357 -195 -635
-194 -168 0 -206 3 -271 21 -96 27 -191 72 -344 163 -248 149 -417 223 -620
275 -193 49 -291 60 -545 60 -256 -1 -372 -15 -572 -69 -200 -55 -330 -115
-618 -285 -250 -147 -359 -176 -630 -168 -140 4 -178 9 -253 31 -105 31 -137
47 -327 161 -342 205 -595 293 -926 325 -101 9 -349 12 -419 4z"/>
</g>
</svg>
